<mxfile host="app.diagrams.net" modified="2024-03-20T23:14:51.143Z" agent="Mozilla/5.0 (Windows NT 10.0; Win64; x64) AppleWebKit/537.36 (KHTML, like Gecko) Chrome/122.0.0.0 Safari/537.36" etag="3IJpKXinBBVBSAvrncoH" version="21.6.5" type="device">
  <diagram id="C5RBs43oDa-KdzZeNtuy" name="Page-1">
    <mxGraphModel dx="4755" dy="2933" grid="1" gridSize="10" guides="1" tooltips="1" connect="1" arrows="1" fold="1" page="1" pageScale="1" pageWidth="827" pageHeight="1169" math="0" shadow="0">
      <root>
        <mxCell id="WIyWlLk6GJQsqaUBKTNV-0" />
        <mxCell id="WIyWlLk6GJQsqaUBKTNV-1" parent="WIyWlLk6GJQsqaUBKTNV-0" />
        <mxCell id="VzqX0gNSxUYhQbhme7EZ-2" style="edgeStyle=orthogonalEdgeStyle;rounded=0;orthogonalLoop=1;jettySize=auto;html=1;exitX=0.25;exitY=1;exitDx=0;exitDy=0;" parent="WIyWlLk6GJQsqaUBKTNV-1" source="8ujiRsxlkH-QBAE6qNTh-2" target="VzqX0gNSxUYhQbhme7EZ-0" edge="1">
          <mxGeometry relative="1" as="geometry" />
        </mxCell>
        <mxCell id="VzqX0gNSxUYhQbhme7EZ-3" style="edgeStyle=orthogonalEdgeStyle;rounded=0;orthogonalLoop=1;jettySize=auto;html=1;exitX=0.75;exitY=1;exitDx=0;exitDy=0;" parent="WIyWlLk6GJQsqaUBKTNV-1" source="8ujiRsxlkH-QBAE6qNTh-2" target="VzqX0gNSxUYhQbhme7EZ-1" edge="1">
          <mxGeometry relative="1" as="geometry" />
        </mxCell>
        <mxCell id="8ujiRsxlkH-QBAE6qNTh-2" value="Asn1DecodedDataRouter.java" style="rounded=0;whiteSpace=wrap;html=1;fillColor=#dae8fc;strokeColor=#6c8ebf;" parent="WIyWlLk6GJQsqaUBKTNV-1" vertex="1">
          <mxGeometry x="-35" y="-140" width="170" height="60" as="geometry" />
        </mxCell>
        <mxCell id="gxxZRGfVhdAJ79STQYsQ-20" style="edgeStyle=orthogonalEdgeStyle;rounded=0;orthogonalLoop=1;jettySize=auto;html=1;entryX=0;entryY=0.5;entryDx=0;entryDy=0;" parent="WIyWlLk6GJQsqaUBKTNV-1" source="gxxZRGfVhdAJ79STQYsQ-5" target="gxxZRGfVhdAJ79STQYsQ-19" edge="1">
          <mxGeometry relative="1" as="geometry" />
        </mxCell>
        <mxCell id="gxxZRGfVhdAJ79STQYsQ-5" value="ACM (ADM)" style="shape=process;whiteSpace=wrap;html=1;backgroundOutline=1;fillColor=#d5e8d4;strokeColor=#82b366;" parent="WIyWlLk6GJQsqaUBKTNV-1" vertex="1">
          <mxGeometry x="-240" y="-430" width="120" height="60" as="geometry" />
        </mxCell>
        <mxCell id="_VHhroGQ1N4wH_tI7Nl9-2" style="edgeStyle=orthogonalEdgeStyle;rounded=0;orthogonalLoop=1;jettySize=auto;html=1;" parent="WIyWlLk6GJQsqaUBKTNV-1" source="gxxZRGfVhdAJ79STQYsQ-9" target="gxxZRGfVhdAJ79STQYsQ-62" edge="1">
          <mxGeometry relative="1" as="geometry" />
        </mxCell>
        <mxCell id="gxxZRGfVhdAJ79STQYsQ-9" value="AsnCodecMessageServiceController.java" style="rounded=0;whiteSpace=wrap;html=1;fillColor=#dae8fc;strokeColor=#6c8ebf;" parent="WIyWlLk6GJQsqaUBKTNV-1" vertex="1">
          <mxGeometry x="-485" y="-644" width="230" height="60" as="geometry" />
        </mxCell>
        <mxCell id="gxxZRGfVhdAJ79STQYsQ-18" style="edgeStyle=orthogonalEdgeStyle;rounded=0;orthogonalLoop=1;jettySize=auto;html=1;entryX=0;entryY=0.5;entryDx=0;entryDy=0;" parent="WIyWlLk6GJQsqaUBKTNV-1" source="gxxZRGfVhdAJ79STQYsQ-13" target="gxxZRGfVhdAJ79STQYsQ-5" edge="1">
          <mxGeometry relative="1" as="geometry" />
        </mxCell>
        <mxCell id="gxxZRGfVhdAJ79STQYsQ-13" value="Asn1DecoderInput" style="ellipse;whiteSpace=wrap;html=1;fillColor=#fff2cc;strokeColor=#d6b656;" parent="WIyWlLk6GJQsqaUBKTNV-1" vertex="1">
          <mxGeometry x="-430" y="-440" width="120" height="80" as="geometry" />
        </mxCell>
        <mxCell id="gxxZRGfVhdAJ79STQYsQ-116" style="edgeStyle=orthogonalEdgeStyle;rounded=0;orthogonalLoop=1;jettySize=auto;html=1;" parent="WIyWlLk6GJQsqaUBKTNV-1" source="gxxZRGfVhdAJ79STQYsQ-19" target="gxxZRGfVhdAJ79STQYsQ-105" edge="1">
          <mxGeometry relative="1" as="geometry" />
        </mxCell>
        <mxCell id="gxxZRGfVhdAJ79STQYsQ-19" value="Asn1DecoderOutput" style="ellipse;whiteSpace=wrap;html=1;fillColor=#fff2cc;strokeColor=#d6b656;" parent="WIyWlLk6GJQsqaUBKTNV-1" vertex="1">
          <mxGeometry x="-55" y="-440" width="120" height="80" as="geometry" />
        </mxCell>
        <mxCell id="gxxZRGfVhdAJ79STQYsQ-57" style="edgeStyle=orthogonalEdgeStyle;rounded=0;orthogonalLoop=1;jettySize=auto;html=1;entryX=0.5;entryY=0;entryDx=0;entryDy=0;" parent="WIyWlLk6GJQsqaUBKTNV-1" source="gxxZRGfVhdAJ79STQYsQ-58" target="gxxZRGfVhdAJ79STQYsQ-60" edge="1">
          <mxGeometry relative="1" as="geometry" />
        </mxCell>
        <mxCell id="gxxZRGfVhdAJ79STQYsQ-58" value="MapReceiver.java" style="rounded=0;whiteSpace=wrap;html=1;fillColor=#dae8fc;strokeColor=#6c8ebf;" parent="WIyWlLk6GJQsqaUBKTNV-1" vertex="1">
          <mxGeometry x="-430" y="-860" width="120" height="60" as="geometry" />
        </mxCell>
        <mxCell id="_VHhroGQ1N4wH_tI7Nl9-1" style="edgeStyle=orthogonalEdgeStyle;rounded=0;orthogonalLoop=1;jettySize=auto;html=1;" parent="WIyWlLk6GJQsqaUBKTNV-1" source="gxxZRGfVhdAJ79STQYsQ-60" target="gxxZRGfVhdAJ79STQYsQ-9" edge="1">
          <mxGeometry relative="1" as="geometry" />
        </mxCell>
        <mxCell id="gxxZRGfVhdAJ79STQYsQ-60" value="OdeRawEncodedMAPJson" style="ellipse;whiteSpace=wrap;html=1;fillColor=#fff2cc;strokeColor=#d6b656;" parent="WIyWlLk6GJQsqaUBKTNV-1" vertex="1">
          <mxGeometry x="-455" y="-760" width="170" height="80" as="geometry" />
        </mxCell>
        <mxCell id="gxxZRGfVhdAJ79STQYsQ-65" style="edgeStyle=orthogonalEdgeStyle;rounded=0;orthogonalLoop=1;jettySize=auto;html=1;entryX=0.5;entryY=0;entryDx=0;entryDy=0;" parent="WIyWlLk6GJQsqaUBKTNV-1" source="gxxZRGfVhdAJ79STQYsQ-62" target="gxxZRGfVhdAJ79STQYsQ-13" edge="1">
          <mxGeometry relative="1" as="geometry" />
        </mxCell>
        <mxCell id="gxxZRGfVhdAJ79STQYsQ-62" value="Asn1DecodeMAPJSON.java" style="rounded=0;whiteSpace=wrap;html=1;fillColor=#dae8fc;strokeColor=#6c8ebf;" parent="WIyWlLk6GJQsqaUBKTNV-1" vertex="1">
          <mxGeometry x="-450" y="-540" width="160" height="60" as="geometry" />
        </mxCell>
        <mxCell id="gxxZRGfVhdAJ79STQYsQ-108" style="edgeStyle=orthogonalEdgeStyle;rounded=0;orthogonalLoop=1;jettySize=auto;html=1;entryX=0.5;entryY=0;entryDx=0;entryDy=0;exitX=0.5;exitY=1;exitDx=0;exitDy=0;" parent="WIyWlLk6GJQsqaUBKTNV-1" source="gxxZRGfVhdAJ79STQYsQ-105" target="8ujiRsxlkH-QBAE6qNTh-2" edge="1">
          <mxGeometry relative="1" as="geometry" />
        </mxCell>
        <mxCell id="gxxZRGfVhdAJ79STQYsQ-105" value="AsnCodecRouterServiceController.java" style="rounded=0;whiteSpace=wrap;html=1;fillColor=#dae8fc;strokeColor=#6c8ebf;" parent="WIyWlLk6GJQsqaUBKTNV-1" vertex="1">
          <mxGeometry x="-100" y="-300" width="210" height="60" as="geometry" />
        </mxCell>
        <mxCell id="PEDI4fZoM55Ts1OQFM7--8" style="edgeStyle=orthogonalEdgeStyle;rounded=0;orthogonalLoop=1;jettySize=auto;html=1;exitX=0.8;exitY=0.8;exitDx=0;exitDy=0;exitPerimeter=0;entryX=0.576;entryY=-0.023;entryDx=0;entryDy=0;entryPerimeter=0;" edge="1" parent="WIyWlLk6GJQsqaUBKTNV-1" source="jXXAGItoZEFWX7bIlFFn-11" target="ou7YvPgfH7hjYakllA9J-5">
          <mxGeometry relative="1" as="geometry" />
        </mxCell>
        <mxCell id="PEDI4fZoM55Ts1OQFM7--10" style="edgeStyle=orthogonalEdgeStyle;rounded=0;orthogonalLoop=1;jettySize=auto;html=1;exitX=0.55;exitY=0.95;exitDx=0;exitDy=0;exitPerimeter=0;entryX=0.5;entryY=0;entryDx=0;entryDy=0;" edge="1" parent="WIyWlLk6GJQsqaUBKTNV-1" source="jXXAGItoZEFWX7bIlFFn-11" target="gxxZRGfVhdAJ79STQYsQ-58">
          <mxGeometry relative="1" as="geometry" />
        </mxCell>
        <mxCell id="jXXAGItoZEFWX7bIlFFn-11" value="" style="ellipse;shape=cloud;whiteSpace=wrap;html=1;" parent="WIyWlLk6GJQsqaUBKTNV-1" vertex="1">
          <mxGeometry x="-436" y="-1136" width="120" height="80" as="geometry" />
        </mxCell>
        <mxCell id="_VHhroGQ1N4wH_tI7Nl9-4" value="" style="group" parent="WIyWlLk6GJQsqaUBKTNV-1" vertex="1" connectable="0">
          <mxGeometry x="180" y="-884" width="300" height="600" as="geometry" />
        </mxCell>
        <mxCell id="_VHhroGQ1N4wH_tI7Nl9-5" value="&lt;font style=&quot;font-size: 24px&quot;&gt;Submodule&lt;/font&gt;" style="shape=process;whiteSpace=wrap;html=1;backgroundOutline=1;fillColor=#d5e8d4;strokeColor=#82b366;labelBackgroundColor=none;" parent="_VHhroGQ1N4wH_tI7Nl9-4" vertex="1">
          <mxGeometry x="56.25" y="336.5853658536585" width="180" height="87.80487804878048" as="geometry" />
        </mxCell>
        <mxCell id="_VHhroGQ1N4wH_tI7Nl9-6" value="Key" style="swimlane;labelBackgroundColor=none;fontSize=18;" parent="_VHhroGQ1N4wH_tI7Nl9-4" vertex="1">
          <mxGeometry width="299.99999999999994" height="600" as="geometry" />
        </mxCell>
        <mxCell id="_VHhroGQ1N4wH_tI7Nl9-8" value="" style="endArrow=classic;html=1;rounded=0;labelBackgroundColor=none;" parent="_VHhroGQ1N4wH_tI7Nl9-6" edge="1">
          <mxGeometry width="50" height="50" relative="1" as="geometry">
            <mxPoint x="108.75" y="541.4634146341463" as="sourcePoint" />
            <mxPoint x="183.74999999999997" y="468.29268292682923" as="targetPoint" />
          </mxGeometry>
        </mxCell>
        <mxCell id="_VHhroGQ1N4wH_tI7Nl9-9" value="&lt;font style=&quot;font-size: 24px&quot;&gt;Kafka Topic&lt;/font&gt;" style="ellipse;whiteSpace=wrap;html=1;fillColor=#fff2cc;strokeColor=#d6b656;labelBackgroundColor=none;" parent="_VHhroGQ1N4wH_tI7Nl9-6" vertex="1">
          <mxGeometry x="56.25" y="175.60975609756096" width="180" height="117.07317073170731" as="geometry" />
        </mxCell>
        <mxCell id="_VHhroGQ1N4wH_tI7Nl9-10" value="&lt;font style=&quot;font-size: 24px&quot;&gt;ODE Java Class&lt;/font&gt;" style="rounded=1;whiteSpace=wrap;html=1;fillColor=#dae8fc;strokeColor=#6c8ebf;labelBackgroundColor=none;" parent="_VHhroGQ1N4wH_tI7Nl9-6" vertex="1">
          <mxGeometry x="48.13" y="58.54" width="196.25" height="87.8" as="geometry" />
        </mxCell>
        <mxCell id="VzqX0gNSxUYhQbhme7EZ-0" value="OdeMapTxPojo" style="ellipse;whiteSpace=wrap;html=1;fillColor=#fff2cc;strokeColor=#d6b656;" parent="WIyWlLk6GJQsqaUBKTNV-1" vertex="1">
          <mxGeometry x="-120" width="120" height="80" as="geometry" />
        </mxCell>
        <mxCell id="moMMGJg8A3m-sRt-z_u--7" style="edgeStyle=orthogonalEdgeStyle;rounded=0;orthogonalLoop=1;jettySize=auto;html=1;" parent="WIyWlLk6GJQsqaUBKTNV-1" source="VzqX0gNSxUYhQbhme7EZ-1" target="moMMGJg8A3m-sRt-z_u--1" edge="1">
          <mxGeometry relative="1" as="geometry" />
        </mxCell>
        <mxCell id="VzqX0gNSxUYhQbhme7EZ-1" value="OdeMapJson" style="ellipse;whiteSpace=wrap;html=1;fillColor=#fff2cc;strokeColor=#d6b656;" parent="WIyWlLk6GJQsqaUBKTNV-1" vertex="1">
          <mxGeometry x="90" width="120" height="80" as="geometry" />
        </mxCell>
        <mxCell id="d2JB9219ZVDNDpsMq0my-1" value="message is decoded from Asn1.c" style="text;html=1;strokeColor=none;fillColor=none;align=center;verticalAlign=middle;whiteSpace=wrap;rounded=0;" parent="WIyWlLk6GJQsqaUBKTNV-1" vertex="1">
          <mxGeometry x="-235" y="-370" width="110" height="50" as="geometry" />
        </mxCell>
        <mxCell id="d2JB9219ZVDNDpsMq0my-2" value="&lt;font style=&quot;font-size: 24px&quot;&gt;Data Flow&lt;/font&gt;" style="text;html=1;strokeColor=none;fillColor=none;align=center;verticalAlign=middle;whiteSpace=wrap;rounded=0;labelBackgroundColor=none;" parent="WIyWlLk6GJQsqaUBKTNV-1" vertex="1">
          <mxGeometry x="270" y="-342.53999999999996" width="120" height="43.9" as="geometry" />
        </mxCell>
        <mxCell id="d2JB9219ZVDNDpsMq0my-3" value="messages are in POJO format" style="text;html=1;strokeColor=none;fillColor=none;align=center;verticalAlign=middle;whiteSpace=wrap;rounded=0;" parent="WIyWlLk6GJQsqaUBKTNV-1" vertex="1">
          <mxGeometry x="-112.5" y="80" width="105" height="50" as="geometry" />
        </mxCell>
        <mxCell id="d2JB9219ZVDNDpsMq0my-4" value="messages are in JSON format" style="text;html=1;strokeColor=none;fillColor=none;align=center;verticalAlign=middle;whiteSpace=wrap;rounded=0;" parent="WIyWlLk6GJQsqaUBKTNV-1" vertex="1">
          <mxGeometry x="50" y="-40" width="105" height="50" as="geometry" />
        </mxCell>
        <mxCell id="moMMGJg8A3m-sRt-z_u--9" style="edgeStyle=orthogonalEdgeStyle;rounded=0;orthogonalLoop=1;jettySize=auto;html=1;" parent="WIyWlLk6GJQsqaUBKTNV-1" source="moMMGJg8A3m-sRt-z_u--1" target="moMMGJg8A3m-sRt-z_u--8" edge="1">
          <mxGeometry relative="1" as="geometry" />
        </mxCell>
        <mxCell id="moMMGJg8A3m-sRt-z_u--1" value="GeoJSON Converter" style="shape=process;whiteSpace=wrap;html=1;backgroundOutline=1;fillColor=#d5e8d4;strokeColor=#82b366;" parent="WIyWlLk6GJQsqaUBKTNV-1" vertex="1">
          <mxGeometry x="285" y="10" width="120" height="60" as="geometry" />
        </mxCell>
        <mxCell id="moMMGJg8A3m-sRt-z_u--4" style="edgeStyle=none;rounded=0;orthogonalLoop=1;jettySize=auto;html=1;" parent="WIyWlLk6GJQsqaUBKTNV-1" source="moMMGJg8A3m-sRt-z_u--5" target="moMMGJg8A3m-sRt-z_u--6" edge="1">
          <mxGeometry relative="1" as="geometry" />
        </mxCell>
        <mxCell id="moMMGJg8A3m-sRt-z_u--5" value="Conflict Monitor" style="shape=process;whiteSpace=wrap;html=1;backgroundOutline=1;fillColor=#d5e8d4;strokeColor=#82b366;" parent="WIyWlLk6GJQsqaUBKTNV-1" vertex="1">
          <mxGeometry x="285" y="222.25" width="120" height="60" as="geometry" />
        </mxCell>
        <mxCell id="moMMGJg8A3m-sRt-z_u--6" value="CM Output Topics" style="ellipse;whiteSpace=wrap;html=1;fillColor=#f8cecc;strokeColor=#b85450;" parent="WIyWlLk6GJQsqaUBKTNV-1" vertex="1">
          <mxGeometry x="450" y="212.25" width="120" height="80" as="geometry" />
        </mxCell>
        <mxCell id="moMMGJg8A3m-sRt-z_u--11" style="edgeStyle=orthogonalEdgeStyle;rounded=0;orthogonalLoop=1;jettySize=auto;html=1;" parent="WIyWlLk6GJQsqaUBKTNV-1" source="moMMGJg8A3m-sRt-z_u--8" target="moMMGJg8A3m-sRt-z_u--5" edge="1">
          <mxGeometry relative="1" as="geometry" />
        </mxCell>
        <mxCell id="moMMGJg8A3m-sRt-z_u--8" value="ProcessedOdeMapJson" style="ellipse;whiteSpace=wrap;html=1;fillColor=#fff2cc;strokeColor=#d6b656;" parent="WIyWlLk6GJQsqaUBKTNV-1" vertex="1">
          <mxGeometry x="275" y="100" width="140" height="80" as="geometry" />
        </mxCell>
        <mxCell id="PEDI4fZoM55Ts1OQFM7--3" style="edgeStyle=orthogonalEdgeStyle;rounded=0;orthogonalLoop=1;jettySize=auto;html=1;exitX=0;exitY=0.5;exitDx=0;exitDy=0;entryX=1;entryY=0.5;entryDx=0;entryDy=0;" edge="1" parent="WIyWlLk6GJQsqaUBKTNV-1" source="ou7YvPgfH7hjYakllA9J-4" target="gxxZRGfVhdAJ79STQYsQ-60">
          <mxGeometry relative="1" as="geometry" />
        </mxCell>
        <mxCell id="ou7YvPgfH7hjYakllA9J-4" value="LogFileToAsn1CodecPublisher,java" style="rounded=0;whiteSpace=wrap;html=1;fillColor=#dae8fc;strokeColor=#6c8ebf;" parent="WIyWlLk6GJQsqaUBKTNV-1" vertex="1">
          <mxGeometry x="-230" y="-750" width="210" height="60" as="geometry" />
        </mxCell>
        <mxCell id="PEDI4fZoM55Ts1OQFM7--5" style="edgeStyle=orthogonalEdgeStyle;rounded=0;orthogonalLoop=1;jettySize=auto;html=1;exitX=0;exitY=0;exitDx=70;exitDy=80;exitPerimeter=0;entryX=0.5;entryY=0;entryDx=0;entryDy=0;" edge="1" parent="WIyWlLk6GJQsqaUBKTNV-1" source="ou7YvPgfH7hjYakllA9J-5" target="ou7YvPgfH7hjYakllA9J-1">
          <mxGeometry relative="1" as="geometry" />
        </mxCell>
        <mxCell id="ou7YvPgfH7hjYakllA9J-5" value="offloaded files" style="shape=cube;whiteSpace=wrap;html=1;boundedLbl=1;backgroundOutline=1;darkOpacity=0.05;darkOpacity2=0.1;" parent="WIyWlLk6GJQsqaUBKTNV-1" vertex="1">
          <mxGeometry x="-195" y="-990" width="120" height="80" as="geometry" />
        </mxCell>
        <mxCell id="ou7YvPgfH7hjYakllA9J-8" value="&lt;span&gt;message arrives encoded with Asn1.c&lt;/span&gt;" style="text;html=1;strokeColor=none;fillColor=none;align=center;verticalAlign=middle;whiteSpace=wrap;rounded=0;" parent="WIyWlLk6GJQsqaUBKTNV-1" vertex="1">
          <mxGeometry x="-520" y="-800" width="90" height="60" as="geometry" />
        </mxCell>
        <mxCell id="PEDI4fZoM55Ts1OQFM7--4" style="edgeStyle=orthogonalEdgeStyle;rounded=0;orthogonalLoop=1;jettySize=auto;html=1;exitX=0.5;exitY=1;exitDx=0;exitDy=0;entryX=0.5;entryY=0;entryDx=0;entryDy=0;" edge="1" parent="WIyWlLk6GJQsqaUBKTNV-1" source="ou7YvPgfH7hjYakllA9J-1" target="ou7YvPgfH7hjYakllA9J-4">
          <mxGeometry relative="1" as="geometry" />
        </mxCell>
        <mxCell id="ou7YvPgfH7hjYakllA9J-1" value="FileUploadController.java" style="rounded=0;whiteSpace=wrap;html=1;fillColor=#dae8fc;strokeColor=#6c8ebf;" parent="WIyWlLk6GJQsqaUBKTNV-1" vertex="1">
          <mxGeometry x="-195" y="-860" width="140" height="60" as="geometry" />
        </mxCell>
      </root>
    </mxGraphModel>
  </diagram>
</mxfile>
